#N canvas 577 43 588 688 10;
#X declare -lib else;
#X obj 306 6 cnv 15 250 40 empty empty empty 12 13 0 18 #7c7c7c #e0e4dc 0;
#N canvas 382 141 749 319 (subpatch) 0;
#X coords 0 -1 1 1 252 42 2 0 0;
#X restore 305 5 pd;
#X obj 346 13 cnv 10 10 10 empty empty ELSE 0 15 2 30 #7c7c7c #e0e4dc 0;
#X obj 24 42 cnv 4 4 4 empty empty Room 0 28 2 18 #e0e0e0 #000000 0;
#X obj 77 42 cnv 4 4 4 empty empty Panning 0 28 2 18 #e0e0e0 #000000 0;
#X obj 459 13 cnv 10 10 10 empty empty EL 0 6 2 13 #7c7c7c #e0e4dc 0;
#X obj 479 13 cnv 10 10 10 empty empty Locus 0 6 2 13 #7c7c7c #e0e4dc 0;
#X obj 465 28 cnv 10 10 10 empty empty ELSE 0 6 2 13 #7c7c7c #e0e4dc 0;
#X obj 516 13 cnv 10 10 10 empty empty Solus' 0 6 2 13 #7c7c7c #e0e4dc 0;
#X obj 503 28 cnv 10 10 10 empty empty library 0 6 2 13 #7c7c7c #e0e4dc 0;
#X obj 4 5 cnv 15 301 42 empty empty saf.roompanning 20 20 2 37 #e0e0e0 #000000 0;
#N canvas 0 22 450 278 (subpatch) 0;
#X coords 0 1 100 -1 302 42 1;
#X restore 3 5 graph;
#X obj 3 545 cnv 3 550 3 empty empty outlets 8 12 0 13 #dcdcdc #000000 0;
#X obj 117 551 cnv 17 3 17 empty empty 0 5 9 0 16 #dcdcdc #9c9c9c 0;
#X obj 3 641 cnv 15 552 21 empty empty empty 20 12 0 14 #e0e0e0 #202020 0;
#X obj 2 582 cnv 3 550 3 empty empty arguments 8 12 0 13 #dcdcdc #000000 0;
#X obj 451 60 declare -lib else;
#X text 120 590 1) float - ambisonics order;
#X text 120 607 2) float;
#X text 174 607 - number of inputs or multichannel (-m);
#X text 198 551 signal - Ambisonics signal (multichannel), f 44;
#X obj 4 465 cnv 3 550 3 empty empty inlets 8 12 0 13 #dcdcdc #000000 0;
#X obj 112 471 cnv 17 3 55 empty empty 0 5 9 0 16 #dcdcdc #9c9c9c 0;
#X text 146 470 float/signal;
#N canvas 474 546 796 265 other_messages 0;
#X text 286 10 - set position of input source;
#X text 12 10 source <source_index> <x> <y> <z>;
#X text 12 35 receiver <receiver_index> <x> <y> <z>;
#X text 285 35 - set position of receiver/listener;
#X text 12 60 roomdim <x> <y> <z>;
#X text 285 60 - set dimensions of the room (in meters);
#X text 10 120 reflections 1|0;
#X text 283 120 - Set on/off reflections;
#X text 10 141 maxreflectionorder <reflection_order>;
#X text 283 141 - Set the reflections order;
#X restore 151 491 pd other_messages;
#X text 228 470 - source inputs (receives multichannel);
#N canvas 962 173 450 610 pos 1;
#X obj 33 251 outlet;
#X obj 37 19 loadbang;
#X obj 106 30 bng 16 250 50 0 empty empty empty 0 -8 0 10 #fcfcfc #000000 #000000;
#X msg 34 65 source 1 2.5 2 0;
#X msg 63 86 source 2 2 0.5 2.5;
#X msg 80 107 source 3 2 2 2.5;
#X msg 97 130 source 4 4 2 2.5;
#X msg 123 186 roomdim 5 5 5;
#X obj 123 165 loadbang;
#X obj 237 163 loadbang;
#X msg 237 184 receiver 1 2.5 2.5 2.5;
#X msg 180 287 source 1 2.2 4.2 2.5;
#X msg 152 324 source 1 4.5 4.5 2.5;
#X msg 121 394 source 1 2.2 0.8 2.5;
#X msg 158 459 source 1 4.5 0.5 2.5;
#X msg 142 514 source 1 2 2.5 2.5;
#X msg 80 473 source 1 4.5 2.5 2.5;
#X connect 1 0 3 0;
#X connect 1 0 4 0;
#X connect 1 0 5 0;
#X connect 1 0 6 0;
#X connect 2 0 3 0;
#X connect 2 0 4 0;
#X connect 2 0 5 0;
#X connect 2 0 6 0;
#X connect 3 0 0 0;
#X connect 4 0 0 0;
#X connect 5 0 0 0;
#X connect 6 0 0 0;
#X connect 7 0 0 0;
#X connect 8 0 7 0;
#X connect 9 0 10 0;
#X connect 10 0 0 0;
#X connect 11 0 0 0;
#X connect 12 0 0 0;
#X connect 13 0 0 0;
#X connect 14 0 0 0;
#X connect 15 0 0 0;
#X connect 16 0 0 0;
#X restore 15 170 pd pos;
#X text 20 82 The [saf.roompanning] object represents sources and receivers in a right-handed \, three-dimensional Cartesian space where X+ points forward \, Y+ points left \, and Z+ points upwards \, following the ambisonics convention developed by Gerzon and others \; positions are scaled to the room dimensions \, and rotations can be expressed as yaw \, pitch \, and roll., f 84;
#X obj 281 68 cnv 10 40 5 empty empty Required\ for\ saf\ graphical\ objects! 0 0 2 12 #ffffff #ff0400 0;
#X text 64 182 Use the mouse!;
#X obj 15 437 s enc;
#X obj 208 435 s dec;
#X msg 75 151 reload;
#X obj 15 205 ../Sources/saf.roompanning;
#X obj 292 332 else/saf.roomsim~ -m 2;
#X obj 292 209 snake~ in 4, f 22;
#X obj 292 168 else/player~ -loop band.wav 1;
#X obj 292 367 else/saf.decoder~ -m 4;
#X obj 432 332 r dec;
#X obj 480 306 loadbang;
#X msg 480 331 binaural 1;
#X obj 292 416 dac~;
#X obj 246 272 r enc;
#X obj 337 395 else/saf.meter~ -width 6 -height 50 -frames 20 -inchs 2;
#X obj 499 180 else/meter;
#X obj 499 201 nbx 5 14 -1e+37 1e+37 0 0 empty empty empty 0 -8 0 10 #fcfcfc #000000 #000000 0 256;
#X msg 472 240 reflections 3;
#X msg 321 265 source 1 0 5 0;
#X obj 147 134 tgl 16 0 empty empty empty 0 -8 0 10 #fcfcfc #000000 #000000 0 1;
#X msg 146 152 yzview \$1;
#X connect 26 0 33 0;
#X connect 32 0 33 0;
#X connect 33 0 30 0;
#X connect 33 1 31 0;
#X connect 34 0 37 0;
#X connect 35 0 34 0;
#X connect 36 0 35 0;
#X connect 36 1 35 1;
#X connect 36 2 35 2;
#X connect 36 3 35 3;
#X connect 37 0 41 0;
#X connect 37 0 41 1;
#X connect 37 0 43 0;
#X connect 38 0 37 0;
#X connect 39 0 40 0;
#X connect 40 0 37 0;
#X connect 42 0 34 0;
#X connect 44 0 45 0;
#X connect 46 0 34 0;
#X connect 47 0 34 0;
#X connect 48 0 49 0;
#X connect 49 0 33 0;
