#N canvas 669 149 920 804 10;
#X declare -lib else;
#X declare -path ../Sources;
#X obj 306 6 cnv 15 250 40 empty empty empty 12 13 0 18 #7c7c7c #e0e4dc 0;
#N canvas 382 141 749 319 (subpatch) 0;
#X coords 0 -1 1 1 252 42 2 0 0;
#X restore 305 5 pd;
#X obj 346 13 cnv 10 10 10 empty empty ELSE 0 15 2 30 #7c7c7c #e0e4dc 0;
#X obj 24 42 cnv 4 4 4 empty empty VBAP 0 28 2 18 #e0e0e0 #000000 0;
#X obj 82 42 cnv 4 4 4 empty empty panner~ 0 28 2 18 #e0e0e0 #000000 0;
#X obj 459 13 cnv 10 10 10 empty empty EL 0 6 2 13 #7c7c7c #e0e4dc 0;
#X obj 479 13 cnv 10 10 10 empty empty Locus 0 6 2 13 #7c7c7c #e0e4dc 0;
#X obj 465 28 cnv 10 10 10 empty empty ELSE 0 6 2 13 #7c7c7c #e0e4dc 0;
#X obj 516 13 cnv 10 10 10 empty empty Solus' 0 6 2 13 #7c7c7c #e0e4dc 0;
#X obj 503 28 cnv 10 10 10 empty empty library 0 6 2 13 #7c7c7c #e0e4dc 0;
#X obj 5 5 cnv 15 301 42 empty empty saf.3droom~ 20 20 2 37 #e0e0e0 #000000 0;
#N canvas 0 22 450 278 (subpatch) 0;
#X coords 0 1 100 -1 302 42 1 0 0;
#X restore 4 5 graph;
#X obj 9 614 cnv 3 550 3 empty empty outlets 8 12 0 13 #dcdcdc #000000 0;
#X obj 123 620 cnv 17 3 17 empty empty 0 5 9 0 16 #dcdcdc #9c9c9c 0;
#X obj 9 710 cnv 15 552 21 empty empty empty 20 12 0 14 #e0e0e0 #202020 0;
#X obj 8 651 cnv 3 550 3 empty empty arguments 8 12 0 13 #dcdcdc #000000 0;
#X obj 452 52 declare -lib else;
#X obj 10 534 cnv 3 550 3 empty empty inlets 8 12 0 13 #dcdcdc #000000 0;
#X obj 118 540 cnv 17 3 55 empty empty 0 5 9 0 16 #dcdcdc #9c9c9c 0;
#X text 152 539 float/signal;
#N canvas 474 546 747 165 other_messages 0;
#X text 12 10 source <source_index> <azimuth> <elevation>;
#X text 286 10 - set position of input source;
#X text 12 28 speaker <speaker_index> <azi> <ele>, f 43;
#X text 286 33 - set position of input source;
#X text 12 61 dtt <float>, f 43;
#X text 286 61 - Sets the room coefficient value 0-1. Where 0: normal room \, 0.5: dry listening \; room \, 1: anechoic., f 56;
#X text 11 118 spread <float>, f 43;
#X text 285 118 - Set the sources spread in DEGREES., f 56;
#X restore 157 560 pd other_messages;
#X text 234 539 - source inputs (receives multichannel);
#X text 127 654 1) float;
#X text 20 82 The [saf.panner~] is a frequency-dependent 3D panner based on the Vector-base Amplitude Panning (VBAP) method., f 71;
#X text 181 654 - number of sources or multichannel (-m);
#X text 126 670 2) float - number of output (loudspeakers);
#X text 150 621 signal - output signal (multichannel when using -m);
#X msg 13 115 reload;
#X obj 299 52 declare -path ../Sources;
#X obj 13 154 saf.3droom;
#N canvas 166 561 696 452 positions 1;
#X obj 10 13 loadbang;
#X obj 9 312 outlet;
#X msg 165 72 linez 2 1.4 1.5 1.4 -0.5 \, liney 2 0.2 1.3 0.5 -1.5 \, linex 2 0.2 0.5 -1.3 1.5 \,, f 27;
#X msg 342 72 liney 3 1.4 1.5 1.4 -0.5 \, linez 3 0.2 1.3 0.5 -1.5 \, linex 3 0.2 0.5 -1.3 1.5 \,, f 27;
#X msg 243 254 speaker 1 0 0 \, speaker 2 90 0 \, speaker 3 180 0 \, speaker 4 270 0;
#X obj 243 234 loadbang;
#X msg 10 73 linex 1 1 0.5 0.4 -1.5 \, liney 1 0.2 1 0.5 -1.5 \, linez 1 0.2 0.5 1 1.4 \,, f 23;
#X msg 522 72 liney 4 1 -1 1 -1 \, linez 4 1 1 -1 1 \, linex 4 1 1 -1 -1 \,, f 20;
#X msg 250 317 speaker 1 45 -35 \, speaker 2 45 35 \, speaker 3 135 -35 \, speaker 4 -135 35;
#X connect 0 0 6 0;
#X connect 0 0 2 0;
#X connect 0 0 3 0;
#X connect 0 0 7 0;
#X connect 2 0 1 0;
#X connect 3 0 1 0;
#X connect 5 0 4 0;
#X connect 6 0 1 0;
#X connect 7 0 1 0;
#X connect 8 0 1 0;
#X restore 61 115 pd positions;
#X msg 141 115 play;
#X msg 182 116 time 2000;
#X obj 13 509 s enc;
#X text 281 126 Use the mouse to 3d view;
#X msg 495 125 speaker;
#X obj 356 509 s dec;
#X obj 463 392 else/saf.decoder~ -m 4;
#X obj 463 413 dac~ 1;
#X msg 518 353 binaural 1;
#X obj 414 357 r dec;
#X obj 408 270 r enc;
#N canvas 447 518 450 300 audio_source 0;
#X obj 10 185 outlet~;
#X obj 9 88 snake~ in 4, f 22;
#X obj 9 39 else/player~ band.wav 1 -loop;
#X connect 1 0 0 0;
#X connect 2 0 1 0;
#X connect 2 1 1 1;
#X connect 2 2 1 2;
#X connect 2 3 1 3;
#X restore 463 228 pd audio_source;
#X obj 463 310 else/saf.roomsim~ -m 2;
#X obj 373 323 print;
#X connect 27 0 29 0;
#X connect 29 0 33 0;
#X connect 29 1 36 0;
#X connect 30 0 29 0;
#X connect 31 0 29 0;
#X connect 32 0 29 0;
#X connect 37 0 38 0;
#X connect 39 0 37 0;
#X connect 40 0 37 0;
#X connect 41 0 43 0;
#X connect 41 0 44 0;
#X connect 42 0 43 0;
#X connect 43 0 37 0;
