#N canvas 669 149 570 645 10;
#X declare -lib else;
#X obj 306 6 cnv 15 250 40 empty empty empty 12 13 0 18 #7c7c7c #e0e4dc 0;
#N canvas 382 141 749 319 (subpatch) 0;
#X coords 0 -1 1 1 252 42 2 0 0;
#X restore 305 5 pd;
#X obj 346 13 cnv 10 10 10 empty empty ELSE 0 15 2 30 #7c7c7c #e0e4dc 0;
#X obj 24 42 cnv 4 4 4 empty empty VBAP 0 28 2 18 #e0e0e0 #000000 0;
#X obj 82 42 cnv 4 4 4 empty empty panner~ 0 28 2 18 #e0e0e0 #000000 0;
#X obj 459 13 cnv 10 10 10 empty empty EL 0 6 2 13 #7c7c7c #e0e4dc 0;
#X obj 479 13 cnv 10 10 10 empty empty Locus 0 6 2 13 #7c7c7c #e0e4dc 0;
#X obj 465 28 cnv 10 10 10 empty empty ELSE 0 6 2 13 #7c7c7c #e0e4dc 0;
#X obj 516 13 cnv 10 10 10 empty empty Solus' 0 6 2 13 #7c7c7c #e0e4dc 0;
#X obj 503 28 cnv 10 10 10 empty empty library 0 6 2 13 #7c7c7c #e0e4dc 0;
#X obj 5 5 cnv 15 301 42 empty empty saf.panner~ 20 20 2 37 #e0e0e0 #000000 0;
#N canvas 0 22 450 278 (subpatch) 0;
#X coords 0 1 100 -1 302 42 1;
#X restore 4 5 graph;
#X obj 3 489 cnv 3 550 3 empty empty outlets 8 12 0 13 #dcdcdc #000000 0;
#X obj 117 495 cnv 17 3 17 empty empty 0 5 9 0 16 #dcdcdc #9c9c9c 0;
#X obj 3 585 cnv 15 552 21 empty empty empty 20 12 0 14 #e0e0e0 #202020 0;
#X obj 2 526 cnv 3 550 3 empty empty arguments 8 12 0 13 #dcdcdc #000000 0;
#N canvas 659 591 524 302 POSITIONS 0;
#X obj 4 7 loadbang;
#X obj 4 249 outlet;
#X obj 4 56 int;
#X obj 4 78 + 1;
#X obj 4 100 % 360;
#X obj 295 7 loadbang;
#X obj 295 56 int;
#X obj 295 78 + 1;
#X obj 295 127 % 360;
#X msg 303 213 source 4 \$1 0;
#X obj 96 7 loadbang;
#X obj 96 56 int;
#X obj 96 78 + 1;
#X obj 96 120 % 360;
#X msg 104 213 source 2 \$1 0;
#X obj 192 7 loadbang;
#X obj 192 56 int;
#X obj 192 78 + 1;
#X obj 192 124 % 360;
#X msg 200 213 source 3 \$1 0;
#X obj 96 99 + 90;
#X obj 192 99 + 180;
#X obj 295 99 + 270;
#X obj 4 34 metro 40;
#X obj 96 34 metro 40;
#X obj 192 34 metro 40;
#X obj 295 34 metro 40;
#X text 52 248 source <source_index> <azimuth> <elevation>;
#X obj 402 177 loadbang;
#X msg 4 213 source 1 \$1 30;
#X msg 404 213 numspeakers 4;
#X connect 0 0 23 0;
#X connect 2 0 3 0;
#X connect 3 0 2 1;
#X connect 3 0 4 0;
#X connect 4 0 29 0;
#X connect 5 0 26 0;
#X connect 6 0 7 0;
#X connect 7 0 6 1;
#X connect 7 0 22 0;
#X connect 8 0 9 0;
#X connect 10 0 24 0;
#X connect 11 0 12 0;
#X connect 12 0 11 1;
#X connect 12 0 20 0;
#X connect 13 0 14 0;
#X connect 15 0 25 0;
#X connect 16 0 17 0;
#X connect 17 0 16 1;
#X connect 17 0 21 0;
#X connect 18 0 19 0;
#X connect 20 0 13 0;
#X connect 21 0 18 0;
#X connect 22 0 8 0;
#X connect 23 0 2 0;
#X connect 24 0 11 0;
#X connect 25 0 16 0;
#X connect 26 0 6 0;
#X connect 28 0 30 0;
#X connect 29 0 1 0;
#X connect 30 0 1 0;
#X restore 15 124 pd POSITIONS;
#X obj 452 52 declare -lib else;
#X obj 282 291 else/out.mc~;
#N canvas 447 518 450 300 audio_source 0;
#X obj 10 185 outlet~;
#X obj 9 88 snake~ in 4, f 22;
#X obj 9 39 else/player~ band.wav 1 -loop;
#X connect 1 0 0 0;
#X connect 2 0 1 0;
#X connect 2 1 1 1;
#X connect 2 2 1 2;
#X connect 2 3 1 3;
#X restore 282 137 pd audio_source;
#X obj 4 409 cnv 3 550 3 empty empty inlets 8 12 0 13 #dcdcdc #000000 0;
#X obj 112 415 cnv 17 3 55 empty empty 0 5 9 0 16 #dcdcdc #9c9c9c 0;
#X text 146 414 float/signal;
#N canvas 474 546 747 165 other_messages 0;
#X text 12 10 source <source_index> <azimuth> <elevation>;
#X text 286 10 - set position of input source;
#X text 12 28 speaker <speaker_index> <azi> <ele>, f 43;
#X text 286 33 - set position of input source;
#X text 12 61 dtt <float>, f 43;
#X text 286 61 - Sets the room coefficient value 0-1. Where 0: normal room \, 0.5: dry listening \; room \, 1: anechoic., f 56;
#X text 11 118 spread <float>, f 43;
#X text 285 118 - Set the sources spread in DEGREES., f 56;
#X restore 151 435 pd other_messages;
#X text 228 414 - source inputs (receives multichannel);
#X text 121 529 1) float;
#X obj 15 380 s pos-enc;
#X obj 221 137 r pos-enc;
#X obj 322 219 else/saf.meter~ -width 6 -height 60 -frames 20 -inchs 4;
#X text 20 82 The [saf.panner~] is a frequency-dependent 3D panner based on the Vector-base Amplitude Panning (VBAP) method., f 71;
#X text 175 529 - number of sources or multichannel (-m);
#X text 120 545 2) float - number of output (loudspeakers);
#X text 144 496 signal - output signal (multichannel when using -m);
#X msg 369 165 dtt 1;
#X obj 15 167 ../Sources/saf.panning -size 200 -nsources 3 -nspeakers 4;
#X msg 298 165 spread 180;
#X obj 282 190 else/saf.panner~ -m 4;
#X connect 16 0 34 0;
#X connect 19 0 36 0;
#X connect 27 0 36 0;
#X connect 33 0 36 0;
#X connect 34 0 26 0;
#X connect 34 1 26 0;
#X connect 35 0 36 0;
#X connect 36 0 28 0;
#X connect 36 0 18 0;
