#N canvas 530 150 575 653 10;
#X declare -lib else;
#X obj 306 6 cnv 15 250 40 empty empty empty 12 13 0 18 #7c7c7c #e0e4dc 0;
#N canvas 382 141 749 319 (subpatch) 0;
#X coords 0 -1 1 1 252 42 2 0 0;
#X restore 305 5 pd;
#X obj 346 13 cnv 10 10 10 empty empty ELSE 0 15 2 30 #7c7c7c #e0e4dc 0;
#X obj 24 42 cnv 4 4 4 empty empty Ambisonics 0 28 2 18 #e0e0e0 #000000 0;
#X obj 120 42 cnv 4 4 4 empty empty encoder~ 0 28 2 18 #e0e0e0 #000000 0;
#X obj 459 13 cnv 10 10 10 empty empty EL 0 6 2 13 #7c7c7c #e0e4dc 0;
#X obj 479 13 cnv 10 10 10 empty empty Locus 0 6 2 13 #7c7c7c #e0e4dc 0;
#X obj 465 28 cnv 10 10 10 empty empty ELSE 0 6 2 13 #7c7c7c #e0e4dc 0;
#X obj 516 13 cnv 10 10 10 empty empty Solus' 0 6 2 13 #7c7c7c #e0e4dc 0;
#X obj 503 28 cnv 10 10 10 empty empty library 0 6 2 13 #7c7c7c #e0e4dc 0;
#X obj 4 5 cnv 15 301 42 empty empty saf.decoder~ 20 20 2 37 #e0e0e0 #000000 0;
#N canvas 0 22 450 278 (subpatch) 0;
#X coords 0 1 100 -1 302 42 1;
#X restore 4 5 graph;
#X obj 3 481 cnv 3 550 3 empty empty outlets 8 12 0 13 #dcdcdc #000000 0;
#X obj 117 487 cnv 17 3 17 empty empty 0 5 9 0 16 #dcdcdc #9c9c9c 0;
#X obj 3 576 cnv 15 552 21 empty empty empty 20 12 0 14 #e0e0e0 #202020 0;
#X obj 2 517 cnv 3 550 3 empty empty arguments 8 12 0 13 #dcdcdc #000000 0;
#X obj 452 52 declare -lib else;
#X obj 222 297 else/out.mc~;
#X text 120 542 2) float;
#N canvas 447 518 560 300 audio_source 1;
#X obj 118 194 outlet~;
#X obj 118 112 snake~ in 4, f 40;
#N canvas 659 591 855 302 POSITIONS 0;
#X obj 6 249 outlet;
#X text 54 248 source <source_index> <azimuth> <elevation>;
#X obj 6 5 loadbang;
#X obj 6 32 metro 40;
#X obj 6 179 pack f f;
#X obj 74 119 nbx 5 14 -1e+37 1e+37 0 0 empty empty empty 0 -8 0 10 #fcfcfc #000000 #000000 0 256;
#X msg 6 211 source 1 \$1 \$2;
#X obj 6 92 nbx 5 14 -1e+37 1e+37 0 0 empty empty empty 0 -8 0 10 #fcfcfc #000000 #000000 0 256;
#X obj 6 71 else/count -90 90 -alt;
#X obj 256 10 loadbang;
#X obj 256 184 pack f f;
#X obj 324 124 nbx 5 14 -1e+37 1e+37 0 0 empty empty empty 0 -8 0 10 #fcfcfc #000000 #000000 0 256;
#X obj 256 97 nbx 5 14 -1e+37 1e+37 0 0 empty empty empty 0 -8 0 10 #fcfcfc #000000 #000000 0 256;
#X obj 256 76 else/count -90 90 -alt;
#X msg 256 216 source 2 \$1 \$2;
#X obj 256 37 metro 50;
#X obj 470 17 loadbang;
#X obj 470 191 pack f f;
#X obj 538 131 nbx 5 14 -1e+37 1e+37 0 0 empty empty empty 0 -8 0 10 #fcfcfc #000000 #000000 0 256;
#X obj 470 104 nbx 5 14 -1e+37 1e+37 0 0 empty empty empty 0 -8 0 10 #fcfcfc #000000 #000000 0 256;
#X obj 470 83 else/count -90 90 -alt;
#X obj 470 44 metro 55;
#X msg 470 223 source 3 \$1 \$2;
#X obj 684 24 loadbang;
#X obj 684 198 pack f f;
#X obj 752 138 nbx 5 14 -1e+37 1e+37 0 0 empty empty empty 0 -8 0 10 #fcfcfc #000000 #000000 0 256;
#X obj 684 111 nbx 5 14 -1e+37 1e+37 0 0 empty empty empty 0 -8 0 10 #fcfcfc #000000 #000000 0 256;
#X obj 684 90 else/count -90 90 -alt;
#X obj 684 51 metro 65;
#X msg 684 230 source 4 \$1 \$2;
#X obj 324 103 else/count -90 90 -alt;
#X obj 74 98 else/count -90 90 -alt;
#X obj 538 110 else/count -90 90 -alt;
#X obj 752 117 else/count -90 90 -alt;
#X connect 2 0 3 0;
#X connect 3 0 8 0;
#X connect 3 0 31 0;
#X connect 4 0 6 0;
#X connect 6 0 0 0;
#X connect 7 0 4 0;
#X connect 8 0 7 0;
#X connect 9 0 15 0;
#X connect 10 0 14 0;
#X connect 12 0 10 0;
#X connect 13 0 12 0;
#X connect 14 0 0 0;
#X connect 15 0 13 0;
#X connect 15 0 30 0;
#X connect 16 0 21 0;
#X connect 17 0 22 0;
#X connect 19 0 17 0;
#X connect 20 0 19 0;
#X connect 21 0 20 0;
#X connect 21 0 32 0;
#X connect 22 0 0 0;
#X connect 23 0 28 0;
#X connect 24 0 29 0;
#X connect 26 0 24 0;
#X connect 27 0 26 0;
#X connect 28 0 27 0;
#X connect 28 0 33 0;
#X connect 29 0 0 0;
#X connect 30 0 10 1;
#X connect 30 0 11 0;
#X connect 31 0 4 1;
#X connect 31 0 5 0;
#X connect 32 0 17 1;
#X connect 32 0 18 0;
#X connect 33 0 24 1;
#X connect 33 0 25 0;
#X restore 9 171 pd POSITIONS;
#X obj 9 226 outlet;
#X obj 118 72 else/player~ -loop band.wav 1, f 53;
#X obj 55 67 r enc;
#X obj 118 166 else/saf.encoder~ -m 4;
#X connect 1 0 6 0;
#X connect 4 0 1 0;
#X connect 4 1 1 1;
#X connect 4 2 1 2;
#X connect 4 3 1 3;
#X connect 5 0 6 0;
#X connect 6 0 0 0;
#X restore 15 118 pd audio_source;
#X f 35;
#X obj 4 409 cnv 3 550 3 empty empty inlets 8 12 0 13 #dcdcdc #000000 0;
#X obj 112 415 cnv 17 3 55 empty empty 0 5 9 0 16 #dcdcdc #9c9c9c 0;
#X text 146 414 float/signal;
#X text 20 82 The [saf.decoder~] implements the Ambisonic decoder from the SPARTA VST3 plugins suite by Acoustics Lab at Aalto University \, Finland., f 71;
#X text 147 488 signal - Decoded signal (multichannel), f 44;
#X text 228 414 - ambisonics inputs (receives multichannel);
#X text 120 525 1) float|symbol - ambisonics order or -m (take order from saf.encoder~), f 72;
#X text 174 542 - number of;
#X msg 234 178 binaural \$1;
#X obj 234 158 tgl 16 0 empty empty empty 0 -8 0 10 #fcfcfc #000000 #000000 0 1;
#X obj 15 354 s enc;
#X obj 208 354 s dec;
#X obj 312 178 r dec;
#X obj 222 205 else/saf.decoder~ -m 4;
#X obj 15 149 else/saf.panning -size 200 -nsources 4 -nspeakers 4;
#N canvas 525 374 834 664 other_messages 0;
#X text 12 10 sofafile <.sofa file>;
#X text 286 10 - Set .sofa file, f 80;
#X text 285 181 - Set the decoding method \, use 1 for Least-squares (LS) \, 2 for LS with diffuse-field EQ \, 3 for Spatial Resampling (SPR) \, 4 for Time-Alignment (TA) \, and 5 for Magnitude LS (MagLS), f 80;
#X text 11 181 decmethod 1-5 (default 1);
#X text 11 221 max-rE 0|1;
#X text 285 226 - Enable/disable the max_rE weighting, f 80;
#X text 11 248 hrirpreproc 0|1;
#X text 285 253 - Set the HRIR pre-processing mode \, use 1 for no pre-processing \, 2 for diffuse-field EQ \, 3 for phase simplification \, and 4 for both EQ and phase simplification., f 80;
#X text 285 298 - Set the Ambisonic normalisation type \, use 1 for N3D \, 2 for SN3D \, and 3 for FuMa., f 80;
#X text 11 298 normtype (1-3);
#X text 285 332 - Set the Ambisonic normalisation type \, use 1 for N3D \, 2 for SN3D \, and 3 for FuMa., f 80;
#X text 11 332 normtype (1-3);
#X text 11 367 diffusematching 0|1;
#X text 285 367 - Set the diffuse-covariance constraint flag \, use 1 to enable and 0 to disable., f 80;
#X text 11 401 truncationeq (1-3);
#X text 285 401 - Set the truncation EQ flag \, use 1 to enable and 0 to disable., f 80;
#X text 11 430 rotation 0|1;
#X text 285 430 - Sets the flag to enable/disable (1 or 0) sound-field rotation, f 80;
#X text 285 456 - Sets the 'yaw' rotation angle \, in degrees, f 80;
#X text 11 456 yaw (0-360);
#X text 11 482 pitch (0-360);
#X text 285 482 - Sets the 'pitch' rotation angle \, in degrees, f 80;
#X text 11 505 roll (0-360);
#X text 285 505 - Sets the 'roll' rotation angle \, in degrees, f 80;
#X text 11 530 fyaw (0-360);
#X text 11 556 fpitch (0-360);
#X text 11 579 froll (0-360);
#X text 285 579 - Sets a flag as to whether to "flip" the sign of the current 'roll' angle, f 80;
#X text 285 556 - Sets a flag as to whether to "flip" the sign of the current 'pitch' angle, f 80;
#X text 285 530 - Sets a flag as to whether to "flip" the sign of the current 'yaw' angle, f 80;
#X text 11 155 use_default_hrirs 0|1;
#X text 285 155 - On/Off the internal hrir \, default is 1, f 80;
#X text 12 36 binaural 0|1;
#X text 286 36 - On/Off the binaural mode, f 80;
#X text 12 62 speaker <index> <azimuth> <elevation>;
#X text 286 62 - Set the azimuth and elevation of a specific loudspeaker, f 80;
#X text 287 88 - Set the decoding method for the selected decoder \, use 1 for SAD \, 2 for MMD \, 3 for EPAD \, and 4 for AllRAD., f 80;
#X text 13 88 decmethod low|high <method_ID>;
#X text 13 123 transitionfreq <freq>;
#X text 287 123 - Sets the frequeny at which to transition from the low frequency decoder to the high frequency decoder., f 80;
#X restore 150 437 pd other_messages;
#X connect 19 0 34 0;
#X connect 19 1 33 0;
#X connect 28 0 33 0;
#X connect 29 0 28 0;
#X connect 32 0 33 0;
#X connect 33 0 17 0;
#X connect 34 0 30 0;
#X connect 34 1 31 0;
