#N canvas 540 114 567 732 10;
#X declare -lib else;
#X obj 306 6 cnv 15 250 40 empty empty empty 12 13 0 18 #7c7c7c #e0e4dc 0;
#N canvas 382 141 749 319 (subpatch) 0;
#X coords 0 -1 1 1 252 42 2 0 0;
#X restore 305 5 pd;
#X obj 346 13 cnv 10 10 10 empty empty ELSE 0 15 2 30 #7c7c7c #e0e4dc 0;
#X obj 24 42 cnv 4 4 4 empty empty Multichannel 0 28 2 18 #e0e0e0 #000000 0;
#X obj 133 42 cnv 4 4 4 empty empty vu 0 28 2 18 #e0e0e0 #000000 0;
#X obj 459 13 cnv 10 10 10 empty empty EL 0 6 2 13 #7c7c7c #e0e4dc 0;
#X obj 479 13 cnv 10 10 10 empty empty Locus 0 6 2 13 #7c7c7c #e0e4dc 0;
#X obj 465 28 cnv 10 10 10 empty empty ELSE 0 6 2 13 #7c7c7c #e0e4dc 0;
#X obj 516 13 cnv 10 10 10 empty empty Solus' 0 6 2 13 #7c7c7c #e0e4dc 0;
#X obj 503 28 cnv 10 10 10 empty empty library 0 6 2 13 #7c7c7c #e0e4dc 0;
#X obj 4 5 cnv 15 301 42 empty empty saf.meter~ 20 20 2 37 #e0e0e0 #000000 0;
#N canvas 0 22 450 278 (subpatch) 0;
#X coords 0 1 100 -1 302 42 1;
#X restore 4 5 graph;
#X obj 451 50 declare -lib else;
#X obj 4 409 cnv 3 550 3 empty empty inlets 8 12 0 13 #dcdcdc #000000 0;
#X obj 112 415 cnv 17 3 55 empty empty 0 5 9 0 16 #dcdcdc #9c9c9c 0;
#X obj 268 58 cnv 16 5 5 empty empty Required\ for\ graphics\ objects! 1 1 0 10 #ffffff #ff0400 0;
#X obj 24 151 snake~ in 4, f 49;
#X obj 24 125 else/perlin~ 3;
#X obj 121 125 else/perlin~ 1;
#X obj 218 126 else/perlin~ 3;
#X obj 315 126 else/perlin~ 1;
#X msg 35 201 width \$1;
#X msg 94 201 height \$1;
#X msg 161 201 frames \$1;
#X text 21 82 [saf.meter~] is a vu meter for multichannels., f 71;
#X text 146 414 signal;
#X text 283 414 - multichannels signal;
#X obj 35 180 nbx 5 14 50 250 0 0 empty empty empty 0 -8 0 10 #fcfcfc #000000 #000000 0 256;
#X obj 94 180 nbx 5 14 50 250 0 0 empty empty empty 0 -8 0 10 #fcfcfc #000000 #000000 0 256;
#X obj 161 180 nbx 5 14 10 60 0 1 empty empty empty 0 -8 0 10 #fcfcfc #000000 #000000 40 256;
#X text 147 429 width <pixels>;
#X text 284 431 - set the width of the object;
#X text 284 449 - set the height of the object, f 43;
#X text 147 447 height <pixels>, f 21;
#X text 147 466 frames <per_second>, f 43;
#X text 284 465 - set the frames per second;
#X obj 2 490 cnv 3 550 3 empty empty outlets 8 12 0 13 #dcdcdc #000000 0;
#X obj 4 624 cnv 15 552 21 empty empty empty 20 12 0 14 #e0e0e0 #202020 0;
#X obj 1 527 cnv 3 550 3 empty empty arguments 8 12 0 13 #dcdcdc #000000 0;
#X obj 2 556 cnv 3 550 3 empty empty flags 8 12 0 13 #dcdcdc #000000 0;
#X text 195 533 (none);
#X text 109 561 -width <float>: width of the object, f 66;
#X text 194 498 (none);
#X text 109 575 -height <float>: height of the object, f 66;
#X text 108 591 -frames <float>: number of frames per second, f 66;
#X obj 24 249 else/saf.meter~ -width 8 -height 120 -frames 40 -inchs 4;
#X connect 16 0 45 0;
#X connect 17 0 16 0;
#X connect 18 0 16 1;
#X connect 19 0 16 2;
#X connect 20 0 16 3;
#X connect 21 0 45 0;
#X connect 22 0 45 0;
#X connect 23 0 45 0;
#X connect 27 0 21 0;
#X connect 28 0 22 0;
#X connect 29 0 23 0;
