#N canvas 719 149 578 746 10;
#X declare -lib else;
#X obj 308 5 cnv 15 250 40 empty empty empty 12 13 0 18 #7c7c7c #e0e4dc 0;
#N canvas 382 141 749 319 (subpatch) 0;
#X coords 0 -1 1 1 252 42 2 0 0;
#X restore 307 4 pd;
#X obj 348 12 cnv 10 10 10 empty empty ELSE 0 15 2 30 #7c7c7c #e0e4dc 0;
#X obj 26 41 cnv 4 4 4 empty empty Ambisonics 0 28 2 18 #e0e0e0 #000000 0;
#X obj 122 41 cnv 4 4 4 empty empty panning 0 28 2 18 #e0e0e0 #000000 0;
#X obj 461 12 cnv 10 10 10 empty empty EL 0 6 2 13 #7c7c7c #e0e4dc 0;
#X obj 481 12 cnv 10 10 10 empty empty Locus 0 6 2 13 #7c7c7c #e0e4dc 0;
#X obj 467 27 cnv 10 10 10 empty empty ELSE 0 6 2 13 #7c7c7c #e0e4dc 0;
#X obj 518 12 cnv 10 10 10 empty empty Solus' 0 6 2 13 #7c7c7c #e0e4dc 0;
#X obj 505 27 cnv 10 10 10 empty empty library 0 6 2 13 #7c7c7c #e0e4dc 0;
#X obj 5 4 cnv 15 301 42 empty empty saf.panning 20 20 2 37 #e0e0e0 #000000 0;
#N canvas 0 22 450 278 (subpatch) 0;
#X coords 0 1 100 -1 302 42 1;
#X restore 5 4 graph;
#X obj 5 501 cnv 3 550 3 empty empty outlets 8 12 0 13 #dcdcdc #000000 0;
#X obj 114 507 cnv 17 3 17 empty empty 0 5 9 0 16 #dcdcdc #9c9c9c 0;
#N canvas 659 591 863 302 POSITIONS 0;
#X obj 4 7 loadbang;
#X obj 4 275 outlet;
#X obj 4 56 int;
#X obj 4 78 + 1;
#X obj 4 100 % 360;
#X obj 4 34 metro 40;
#X text 52 274 source <source_index> <azimuth> <elevation>;
#X obj 4 145 pack f f;
#X obj 49 101 else/count 0 90 -alt;
#X msg 4 213 source 1 \$1 \$2;
#X obj 183 8 loadbang;
#X obj 183 57 int;
#X obj 183 79 + 1;
#X obj 183 101 % 360;
#X obj 183 35 metro 40;
#X obj 183 167 pack f f;
#X obj 228 102 else/count 0 90 -alt;
#X obj 371 8 loadbang;
#X obj 371 57 int;
#X obj 371 79 + 1;
#X obj 371 101 % 360;
#X obj 371 35 metro 40;
#X obj 371 169 pack f f;
#X obj 550 9 loadbang;
#X obj 550 58 int;
#X obj 550 80 + 1;
#X obj 550 102 % 360;
#X obj 550 36 metro 40;
#X obj 550 174 pack f f;
#X msg 183 214 source 2 \$1 \$2;
#X msg 371 214 source 3 \$1 \$2;
#X msg 550 215 source 4 \$1 \$2;
#X obj 550 123 + 270;
#X obj 371 122 + 180;
#X obj 183 122 + 90;
#X obj 416 102 else/count 0 180 -alt;
#X obj 595 103 else/count 0 180 -alt;
#X connect 0 0 5 0;
#X connect 2 0 3 0;
#X connect 3 0 2 1;
#X connect 3 0 4 0;
#X connect 4 0 7 0;
#X connect 5 0 2 0;
#X connect 5 0 8 0;
#X connect 7 0 9 0;
#X connect 8 0 7 1;
#X connect 9 0 1 0;
#X connect 10 0 14 0;
#X connect 11 0 12 0;
#X connect 12 0 11 1;
#X connect 12 0 13 0;
#X connect 13 0 34 0;
#X connect 14 0 11 0;
#X connect 14 0 16 0;
#X connect 15 0 29 0;
#X connect 16 0 15 1;
#X connect 17 0 21 0;
#X connect 18 0 19 0;
#X connect 19 0 18 1;
#X connect 19 0 20 0;
#X connect 20 0 33 0;
#X connect 21 0 18 0;
#X connect 21 0 35 0;
#X connect 22 0 30 0;
#X connect 23 0 27 0;
#X connect 24 0 25 0;
#X connect 25 0 24 1;
#X connect 25 0 26 0;
#X connect 26 0 32 0;
#X connect 27 0 24 0;
#X connect 27 0 36 0;
#X connect 28 0 31 0;
#X connect 29 0 1 0;
#X connect 30 0 1 0;
#X connect 31 0 1 0;
#X connect 32 0 28 0;
#X connect 33 0 22 0;
#X connect 34 0 15 0;
#X connect 35 0 22 1;
#X connect 36 0 28 1;
#X restore 56 159 pd POSITIONS;
#X obj 453 51 declare -lib else;
#X obj 6 408 cnv 3 550 3 empty empty inlets 8 12 0 13 #dcdcdc #000000 0;
#X obj 111 414 cnv 17 3 80 empty empty 0 5 9 0 16 #dcdcdc #9c9c9c 0;
#X obj 56 194 ../Sources/saf.panning -size 200 -nsources 4 -nspeakers 8;
#X obj 135 138 tgl 16 1 empty empty empty 0 -8 0 10 #fcfcfc #000000 #000000 1 1;
#X obj 270 57 cnv 16 5 5 empty empty Required\ for\ graphics\ objects! 1 1 0 10 #ffffff #ff0400 0;
#X text 22 81 The [saf.panning] is created to work with [saf.encoder~] e [saf.decoder~]. You can visualize what you are configuring in the objects. They receive all the messages that [saf.encoder~] and [saf.decoder~] \, but here you can visualize your configuration., f 79;
#X obj 114 528 cnv 17 3 17 empty empty 1 5 9 0 16 #dcdcdc #9c9c9c 0;
#X text 136 507 messages to be connected with [saf.encoder~];
#X text 136 528 messages to be connected with [saf.decoder~];
#X msg 201 159 numspeakers \$1;
#X obj 201 138 nbx 5 14 -1e+37 1e+37 0 0 empty empty empty 0 -8 0 10 #fcfcfc #000000 #000000 0 256;
#X text 140 415 yzview <float> - on/off the yz view (0-1), f 50;
#X text 140 434 source <float> <float> <float> - set position of the source.;
#X text 140 452 numspeakers <float> - set number of speakers. (4-128);
#X obj 6 571 cnv 3 550 3 empty empty arguments 8 12 0 13 #dcdcdc #000000 0;
#X text 202 577 (none);
#X text 140 469 size <float> - set the size (width and height) of the object., f 64;
#X obj 7 693 cnv 15 552 21 empty empty empty 20 12 0 14 #e0e0e0 #202020 0;
#X obj 7 615 cnv 3 550 3 empty empty flags 8 12 0 13 #dcdcdc #000000 0;
#X text 114 634 -nspeakers <float>: number of speakers (default 4), f 66;
#X text 114 620 -size <float>: size of the object (default 200), f 66;
#X text 114 648 -yzview <float>: on/off xzview (default 0), f 66;
#X text 114 662 -nsources <float>: number of sources (defualt 1), f 66;
#X msg 135 159 yzview \$1;
#X msg 299 159 size \$1;
#X obj 299 137 nbx 5 14 -1e+37 1e+37 0 0 empty empty empty 0 -8 0 10 #fcfcfc #000000 #000000 0 256;
#X msg 10 139 reload;
#X connect 14 0 18 0;
#X connect 19 0 39 0;
#X connect 25 0 18 0;
#X connect 26 0 25 0;
#X connect 39 0 18 0;
#X connect 40 0 18 0;
#X connect 41 0 40 0;
#X connect 42 0 18 0;
