#N canvas 530 150 590 649 10;
#X declare -lib else;
#X obj 306 6 cnv 15 250 40 empty empty empty 12 13 0 18 #7c7c7c #e0e4dc 0;
#N canvas 382 141 749 319 (subpatch) 0;
#X coords 0 -1 1 1 252 42 2 0 0;
#X restore 305 5 pd;
#X obj 346 13 cnv 10 10 10 empty empty ELSE 0 15 2 30 #7c7c7c #e0e4dc 0;
#X obj 24 42 cnv 4 4 4 empty empty Ambisonics 0 28 2 18 #e0e0e0 #000000 0;
#X obj 120 42 cnv 4 4 4 empty empty encoder~ 0 28 2 18 #e0e0e0 #000000 0;
#X obj 459 13 cnv 10 10 10 empty empty EL 0 6 2 13 #7c7c7c #e0e4dc 0;
#X obj 479 13 cnv 10 10 10 empty empty Locus 0 6 2 13 #7c7c7c #e0e4dc 0;
#X obj 465 28 cnv 10 10 10 empty empty ELSE 0 6 2 13 #7c7c7c #e0e4dc 0;
#X obj 516 13 cnv 10 10 10 empty empty Solus' 0 6 2 13 #7c7c7c #e0e4dc 0;
#X obj 503 28 cnv 10 10 10 empty empty library 0 6 2 13 #7c7c7c #e0e4dc 0;
#X obj 4 5 cnv 15 301 42 empty empty saf.decoder~ 20 20 2 37 #e0e0e0 #000000 0;
#N canvas 0 22 450 278 (subpatch) 0;
#X coords 0 1 100 -1 302 42 1;
#X restore 4 5 graph;
#X obj 3 481 cnv 3 550 3 empty empty outlets 8 12 0 13 #dcdcdc #000000 0;
#X obj 117 487 cnv 17 3 17 empty empty 0 5 9 0 16 #dcdcdc #9c9c9c 0;
#X obj 3 576 cnv 15 552 21 empty empty empty 20 12 0 14 #e0e0e0 #202020 0;
#X obj 2 517 cnv 3 550 3 empty empty arguments 8 12 0 13 #dcdcdc #000000 0;
#X obj 452 52 declare -lib else;
#X obj 244 274 else/out.mc~;
#X text 120 542 2) float;
#N canvas 447 518 560 300 audio_source 0;
#X obj 118 194 outlet~;
#X obj 118 112 snake~ in 4, f 40;
#N canvas 659 591 855 302 POSITIONS 0;
#X obj 6 249 outlet;
#X obj 617 4 loadbang;
#X obj 617 53 int;
#X obj 617 75 + 1;
#X obj 617 124 % 360;
#X obj 617 96 + 270;
#X obj 617 31 metro 40;
#X text 54 248 source <source_index> <azimuth> <elevation>;
#X msg 617 210 source 4 \$1 \$2;
#X obj 617 145 pack f f;
#X obj 685 118 nbx 5 14 -1e+37 1e+37 0 0 empty empty empty 0 -8 0 10 #fcfcfc #000000 #000000 0 256;
#X obj 6 5 loadbang;
#X obj 6 54 int;
#X obj 6 76 + 1;
#X obj 6 125 % 360;
#X obj 6 32 metro 40;
#X obj 6 179 pack f f;
#X obj 74 119 nbx 5 14 -1e+37 1e+37 0 0 empty empty empty 0 -8 0 10 #fcfcfc #000000 #000000 0 256;
#X msg 6 211 source 1 \$1 \$2;
#X obj 208 4 loadbang;
#X obj 208 53 int;
#X obj 208 75 + 1;
#X obj 208 124 % 360;
#X obj 208 31 metro 40;
#X obj 208 145 pack f f;
#X obj 276 118 nbx 5 14 -1e+37 1e+37 0 0 empty empty empty 0 -8 0 10 #fcfcfc #000000 #000000 0 256;
#X msg 208 210 source 2 \$1 \$2;
#X obj 416 4 loadbang;
#X obj 416 53 int;
#X obj 416 75 + 1;
#X obj 416 124 % 360;
#X obj 416 31 metro 40;
#X obj 416 145 pack f f;
#X obj 484 118 nbx 5 14 -1e+37 1e+37 0 0 empty empty empty 0 -8 0 10 #fcfcfc #000000 #000000 0 256;
#X msg 416 210 source 3 \$1 \$2;
#X obj 208 96 + 90;
#X obj 416 96 + 180;
#X obj 74 98 else/count 0 90 -alt;
#X obj 276 97 else/count 0 90 -alt;
#X obj 484 97 else/count 0 90 -alt;
#X obj 685 97 else/count 0 90 -alt;
#X connect 1 0 6 0;
#X connect 2 0 3 0;
#X connect 3 0 2 1;
#X connect 3 0 5 0;
#X connect 4 0 9 0;
#X connect 5 0 4 0;
#X connect 6 0 2 0;
#X connect 6 0 40 0;
#X connect 8 0 0 0;
#X connect 9 0 8 0;
#X connect 11 0 15 0;
#X connect 12 0 13 0;
#X connect 13 0 12 1;
#X connect 13 0 14 0;
#X connect 14 0 16 0;
#X connect 15 0 12 0;
#X connect 15 0 37 0;
#X connect 16 0 18 0;
#X connect 18 0 0 0;
#X connect 19 0 23 0;
#X connect 20 0 21 0;
#X connect 21 0 20 1;
#X connect 21 0 35 0;
#X connect 22 0 24 0;
#X connect 23 0 20 0;
#X connect 23 0 38 0;
#X connect 24 0 26 0;
#X connect 26 0 0 0;
#X connect 27 0 31 0;
#X connect 28 0 29 0;
#X connect 29 0 28 1;
#X connect 29 0 36 0;
#X connect 30 0 32 0;
#X connect 31 0 28 0;
#X connect 31 0 39 0;
#X connect 32 0 34 0;
#X connect 34 0 0 0;
#X connect 35 0 22 0;
#X connect 36 0 30 0;
#X connect 37 0 16 1;
#X connect 37 0 17 0;
#X connect 38 0 24 1;
#X connect 38 0 25 0;
#X connect 39 0 32 1;
#X connect 39 0 33 0;
#X connect 40 0 9 1;
#X connect 40 0 10 0;
#X restore 9 205 pd POSITIONS;
#X obj 9 226 outlet;
#X obj 118 166 else/saf.encoder~ -m 1;
#X obj 118 72 else/player~ -loop band.wav 1, f 53;
#X obj 55 67 r enc;
#X connect 1 0 4 0;
#X connect 2 0 3 0;
#X connect 4 0 0 0;
#X connect 5 0 1 0;
#X connect 5 1 1 1;
#X connect 5 2 1 2;
#X connect 5 3 1 3;
#X connect 6 0 4 0;
#X restore 156 120 pd audio_source;
#X obj 4 409 cnv 3 550 3 empty empty inlets 8 12 0 13 #dcdcdc #000000 0;
#X obj 112 415 cnv 17 3 55 empty empty 0 5 9 0 16 #dcdcdc #9c9c9c 0;
#X text 146 414 float/signal;
#N canvas 534 366 747 165 other_messages 0;
#X restore 151 435 pd other_messages;
#X msg 15 120 reload;
#X text 20 82 The [saf.decoder~] implements the Ambisonic decoder from the SPARTA VST3 plugins suite by Acoustics Lab at Aalto University \, Finland., f 71;
#X obj 15 146 ../Sources/saf.panning -size 200 -nsources 4 -nspeakers 8;
#X obj 243 194 else/saf.decoder~ -m 4;
#X text 147 488 signal - Decoded signal (multichannel), f 44;
#X text 228 414 - ambisonics inputs (receives multichannel);
#X text 120 525 1) float|symbol - ambisonics order or -m (take order from saf.encoder~), f 72;
#X text 174 542 - number of;
#X msg 260 160 binaural \$1;
#X obj 260 134 tgl 16 0 empty empty empty 0 -8 0 10 #fcfcfc #000000 #000000 0 1;
#X obj 257 217 else/saf.meter~ -width 6 -height 50 -frames 20 -inchs 4;
#X obj 15 375 s enc;
#X msg 63 120 numspeakers 8;
#X obj 430 269 else/saf.sldoa~ -m;
#X connect 19 1 27 0;
#X connect 24 0 26 0;
#X connect 26 0 35 0;
#X connect 26 1 27 0;
#X connect 27 0 17 0;
#X connect 27 0 34 0;
#X connect 32 0 27 0;
#X connect 33 0 32 0;
#X connect 36 0 26 0;
